<?xml version="1.0" encoding="utf-8"?>
<!-- Generator: Adobe Illustrator 18.1.1, SVG Export Plug-In . SVG Version: 6.00 Build 0)  -->
<svg version="1.1" id="Слой_1" xmlns="http://www.w3.org/2000/svg" xmlns:xlink="http://www.w3.org/1999/xlink" x="0px" y="0px"
	 viewBox="0 0 117 117" enable-background="new 0 0 117 117" xml:space="preserve">
<circle fill="#EE8500" cx="58.5" cy="58.5" r="58.5"/>
<g>
	<rect x="38.5" y="58.7" fill="#FFFFFF" width="5.2" height="5.2"/>
	<rect x="38.5" y="67" fill="#FFFFFF" width="5.2" height="5.2"/>
	<rect x="47.2" y="50.4" fill="#FFFFFF" width="5.2" height="5.2"/>
	<rect x="47.2" y="58.7" fill="#FFFFFF" width="5.2" height="5.2"/>
	<rect x="47.2" y="67" fill="#FFFFFF" width="5.2" height="5.2"/>
	<path fill="#FFFFFF" d="M78.6,51.2V36c0-2-1.6-3.7-3.7-3.7H33.7c-2,0-3.7,1.6-3.7,3.7v41.2c0,2,1.6,3.7,3.7,3.7h26.9
		c3,2.4,6.8,3.8,10.9,3.8c9.7,0,17.5-7.8,17.5-17.5C89,60,84.7,53.9,78.6,51.2L78.6,51.2z M45.9,35.9h16.7v4.3H45.9V35.9z
		 M34.5,44.4H74v5.5c-0.8-0.1-1.7-0.2-2.6-0.2c-3.9,0-7.4,1.3-10.3,3.4v-2.6H56v5.2h2.4c-2.7,3.1-4.4,7.1-4.4,11.5
		c0,3.2,0.9,6.1,2.3,8.7H34.5V44.4z M69.9,52.9c0-0.9,0.7-1.6,1.6-1.6c0.9,0,1.6,0.7,1.6,1.6c0,0.9-0.7,1.6-1.6,1.6
		C70.6,54.5,69.9,53.8,69.9,52.9L69.9,52.9z M58.8,67.2c0,0.9-0.7,1.6-1.6,1.6c-0.9,0-1.6-0.7-1.6-1.6c0-0.9,0.7-1.6,1.6-1.6
		C58.1,65.6,58.8,66.3,58.8,67.2L58.8,67.2z M71.5,83.1c-0.9,0-1.6-0.7-1.6-1.6c0-0.9,0.7-1.6,1.6-1.6c0.9,0,1.6,0.7,1.6,1.6
		C73.1,82.3,72.4,83.1,71.5,83.1L71.5,83.1z M81.2,60l-6.7,6.7c0.1,0.2,0.1,0.4,0.1,0.6c0,1.7-1.4,3.1-3.1,3.1c-1.7,0-3-1.3-3.1-3
		l-7.1-5.5c-0.6-0.5-0.8-1.3-0.3-1.9c0.4-0.6,1.3-0.7,1.9-0.2l6.5,5.1c0.6-0.5,1.3-0.9,2.1-0.9c0.6,0,1,0.2,1.5,0.4l6.4-6.4
		c0.6-0.6,1.5-0.7,2-0.1C81.8,58.5,81.8,59.4,81.2,60L81.2,60z M85.7,68.8c-0.9,0-1.6-0.7-1.6-1.6c0-0.9,0.7-1.6,1.6-1.6
		c0.9,0,1.6,0.7,1.6,1.6C87.4,68.1,86.6,68.8,85.7,68.8L85.7,68.8z M85.7,68.8"/>
</g>
</svg>
