<?xml version="1.0" encoding="utf-8"?>
<!-- Generator: Adobe Illustrator 18.1.1, SVG Export Plug-In . SVG Version: 6.00 Build 0)  -->
<svg version="1.1" id="Слой_1" xmlns="http://www.w3.org/2000/svg" xmlns:xlink="http://www.w3.org/1999/xlink" x="0px" y="0px"
	 viewBox="0 0 117 117" enable-background="new 0 0 117 117" xml:space="preserve">
<circle fill="#EE8500" cx="58.5" cy="58.5" r="58.5"/>
<g>
	<g>
		<path fill="#FFFFFF" d="M74,83.5c0.5,0.1,1,0,1.4-0.3c0.4-0.3,0.7-0.8,0.8-1.3l0.5-3c0.1-0.6,0.5-1.1,1-1.4l2.7-1.4
			c0.5-0.2,0.8-0.6,1-1.1c0.2-0.5,0.1-1-0.1-1.5l-1.4-2.7c-0.3-0.5-0.3-1.2,0-1.7l1.4-2.7c0.2-0.5,0.3-1,0.1-1.5
			c-0.2-0.5-0.5-0.9-1-1.1l-2.7-1.4c-0.6-0.3-0.9-0.8-1-1.4l-0.5-3c-0.1-0.5-0.4-1-0.8-1.3c-0.4-0.3-0.9-0.4-1.4-0.3l-3,0.5
			c-0.6,0.1-1.2-0.1-1.6-0.5l-2.2-2.2c-0.4-0.4-0.9-0.6-1.4-0.6c-0.5,0-1,0.2-1.4,0.6l-2.2,2.2c-0.4,0.4-1,0.6-1.6,0.5l-3-0.5
			c-0.5-0.1-1,0-1.4,0.3c-0.4,0.3-0.7,0.8-0.8,1.3l-0.5,3c-0.1,0.6-0.5,1.1-1,1.4l-2.7,1.4c-0.5,0.2-0.8,0.6-1,1.1
			c-0.2,0.5-0.1,1,0.1,1.5l1.4,2.7c0.3,0.5,0.3,1.2,0,1.7l-1.4,2.7c-0.2,0.5-0.3,1-0.1,1.5c0.2,0.5,0.5,0.9,1,1.1l2.7,1.4
			c0.6,0.3,0.9,0.8,1,1.4l0.5,3c0.1,0.5,0.4,1,0.8,1.3c0.4,0.3,0.9,0.4,1.4,0.3l3-0.5c0.6-0.1,1.2,0.1,1.6,0.5l2.2,2.2
			c0.4,0.4,0.9,0.6,1.4,0.6c0.5,0,1-0.2,1.4-0.6l2.2-2.2c0.4-0.4,1-0.6,1.6-0.5L74,83.5z M65.8,81.3c-6.4,0-11.7-5.2-11.7-11.7
			c0-6.4,5.2-11.7,11.7-11.7c6.4,0,11.7,5.2,11.7,11.7S72.2,81.3,65.8,81.3z"/>
		<path fill="#FFFFFF" d="M65.8,59.6c-5.5,0-10,4.5-10,10c0,5.5,4.5,10,10,10c5.5,0,10-4.5,10-10C75.8,64.1,71.3,59.6,65.8,59.6z"/>
		<path fill="#FFFFFF" d="M83.2,85.7l-5.4-5.4l-0.3,1.8c-0.1,0.8-0.6,1.6-1.3,2.1c-0.7,0.5-1.5,0.7-2.4,0.6l-3-0.5
			c-0.3,0-0.4,0.1-0.5,0.2L69.7,85l7.1,7.1c0.3,0.3,0.7,0.4,1,0.3c0.4-0.1,0.6-0.4,0.7-0.8l0.6-3.4l3.5-0.6c0.4-0.1,0.7-0.3,0.8-0.7
			C83.6,86.4,83.5,86,83.2,85.7z"/>
		<path fill="#FFFFFF" d="M60.9,84.3l-3.1,0.5c-0.9,0.1-1.7-0.1-2.4-0.6c-0.7-0.5-1.2-1.3-1.3-2.1l-0.3-1.8l-5.4,5.4
			c-0.3,0.3-0.4,0.7-0.3,1c0.1,0.4,0.4,0.6,0.8,0.7l3.5,0.6l0.6,3.5c0.1,0.4,0.3,0.7,0.7,0.8c0.4,0.1,0.8,0,1-0.3l7.1-7.1l-0.5-0.5
			C61.2,84.4,61.1,84.3,60.9,84.3z"/>
		<path fill="#FFFFFF" d="M68.9,36H43.4c-0.9,0-1.7,0.7-1.7,1.7c0,0.9,0.7,1.7,1.7,1.7h25.5c0.9,0,1.7-0.7,1.7-1.7
			C70.5,36.7,69.8,36,68.9,36z"/>
		<path fill="#FFFFFF" d="M68.9,44.5H43.4c-0.9,0-1.7,0.7-1.7,1.7c0,0.9,0.7,1.7,1.7,1.7h25.5c0.9,0,1.7-0.7,1.7-1.7
			C70.5,45.2,69.8,44.5,68.9,44.5z"/>
		<path fill="#FFFFFF" d="M51.2,79.1L50,78.5c-0.3-0.2-0.6-0.4-0.9-0.6H38.4c-0.7,0-1.3-0.6-1.3-1.3V29.5c0-0.7,0.6-1.3,1.3-1.3H74
			c0.7,0,1.3,0.6,1.3,1.3v24.3c0.6,0.1,1.2,0.4,1.7,0.8c1,0.7,1.6,1.8,1.8,3l0.1-28.1c0-2.7-2.2-4.9-4.9-4.9H38.4
			c-2.7,0-4.9,2.2-4.9,4.9v47.1c0,2.7,2.2,4.9,4.9,4.9h10.5L51.2,79.1z"/>
	</g>
</g>
</svg>
