<?xml version="1.0" encoding="utf-8"?>
<!-- Generator: Adobe Illustrator 18.1.1, SVG Export Plug-In . SVG Version: 6.00 Build 0)  -->
<svg version="1.1" id="Слой_1" xmlns="http://www.w3.org/2000/svg" xmlns:xlink="http://www.w3.org/1999/xlink" x="0px" y="0px"
	 viewBox="0 0 117 117" enable-background="new 0 0 117 117" xml:space="preserve">
<circle fill="#EE8500" cx="58.5" cy="58.5" r="58.5"/>
<g>
	<g>
		<g>
			<path fill="#FFFFFF" d="M88.6,62.2l-0.1-0.1c-0.5-0.6-1.5-1.4-3-2l-0.2-0.1c-1.5-0.7-2.9-1.2-3.4-1.3c-0.3-0.1-0.6-0.2-0.8-0.3
				c-1.7-0.8-1.9-1.3-1.9-1.4l-0.1-0.2l0.1-0.2c1.3-1.6,2.2-3.4,2.5-5.1l0.1-0.1c0.3-0.4,0.6-1,0.7-1.5c0.4-1.5,0.4-2.5,0.1-3.3
				l0-0.1l0-0.1c0.5-1.9,0.9-5.4-1.3-7.9c-0.3-0.4-1.7-1.9-4.2-2.6l-1.3-0.4c-2.1-0.6-3.3-0.8-3.6-0.8c-0.1,0-0.3,0-0.4,0.1l-0.2,0
				c-0.1,0-0.2,0-0.3,0c-0.7,0-1.4,0.3-1.4,0.3c-0.7,0.3-4.4,2-5.6,5.6c-0.2,0.5-0.6,2.1-0.1,5.5l0,0.1l-0.1,0.1
				c-0.5,0.7-0.6,1.8-0.1,3.4c0.1,0.7,0.3,1.2,0.7,1.6l0.1,0.1c0.3,1.8,1.1,3.5,2.3,5.1l0.1,0.1L67,56.9c-0.1,0.1-0.1,0.2-0.1,0.2
				c-0.2,0.5-1.6,1.3-3.7,2.2c-0.5-0.2-0.8-0.3-0.9-0.3c-0.4-0.1-0.8-0.3-1.1-0.4c-2.3-1.1-2.6-1.8-2.6-1.9l-0.1-0.3l0.1-0.2
				c1.7-2.1,2.9-4.6,3.3-6.9L62,49c0.5-0.6,0.8-1.3,0.9-2.1c0.5-1.9,0.6-3.4,0.1-4.4l-0.1-0.1l0-0.1c0.6-2.5,1.2-7.2-1.7-10.5
				c-0.5-0.6-2.2-2.5-5.7-3.5l-1.7-0.6c-2.8-0.9-4.6-1.1-4.8-1.1c-0.2,0-0.3,0-0.6,0.1l-0.2,0c-0.9-0.2-2.1,0.3-2.3,0.4
				c-1,0.4-5.9,2.7-7.5,7.5c-0.3,0.7-0.8,2.8-0.1,7.3l0,0.1l-0.1,0.1c-0.7,0.9-0.8,2.5-0.2,4.5c0.2,0.9,0.4,1.6,0.9,2.2l0.1,0.2
				c0.4,2.4,1.5,4.8,3.1,6.8l0.1,0.2l-0.1,0.2c-0.1,0.1-0.1,0.2-0.1,0.3c-0.4,1.1-4.8,3.1-8.6,4.3c-2.8,1-4,2.7-4,2.8
				c-3.8,5.6-4.3,17.8-4.3,18.3c0.1,3.2,1.5,3.8,1.8,3.9l0.2,0.1c8.4,3.7,20.7,4.4,22.1,4.5l0.4,0c0.4,0,0.8,0,1.2,0h0l0.1,0
				c0.1,0,0.2,0,0.3,0h0.1c0.6,0,13.8-0.8,22-4.5c0.5-0.1,1.9-0.7,2-3.8c2.9-0.2,10-1.1,14.7-3.2c0.4-0.1,1.5-0.6,1.5-3.1
				C91.7,74.8,91.3,66.3,88.6,62.2L88.6,62.2z M43.5,57.8l0.2-0.2l0.2,0.2c2,1.9,4.3,2.9,6.3,2.9c2.1,0,4.3-0.9,6.4-2.7l0.2-0.1
				l0.4,0.2c0.4,0.3,1.1,0.8,1.4,1l0.4,0.2l0,0l0.2,0.1c0.4,0.2,0.8,0.4,1.3,0.7c0.5,0.2,0.9,0.4,1.3,0.5c0.1,0,2.1,0.7,4.4,1.7
				l0.4,0.1c2.2,0.8,3.1,2,3.1,2c3.4,5,4,16,4,17.2c0,1.7-0.5,2.2-0.6,2.2c-7.6,3.4-19,4.3-21.3,4.4h-0.1l-0.1,0c-0.1,0-0.2,0-0.2,0
				l-0.1,0c-0.6,0-1.1,0.1-1.6,0.1h-0.4c-1.4-0.1-13.7-0.9-21.6-4.4c-0.2-0.1-0.6-0.6-0.7-2.2c0-0.1,0.4-11.9,4-17.2
				c0.2-0.2,1.1-1.3,3.1-2.1c1.7-0.5,5.9-1.9,8.2-3.6c0.1-0.1,0.2-0.2,0.3-0.3C42.7,58.6,43.1,58.2,43.5,57.8L43.5,57.8z M67.1,60.8
				l-0.3-0.1c-0.5-0.2-1.1-0.5-1.6-0.7c0.8-0.4,1.4-0.7,1.9-1.1c0.1,0,0.1-0.1,0.2-0.2c0.2-0.2,0.4-0.4,0.7-0.7l0.1-0.1l0.1,0.1
				c1.5,1.4,3.2,2.2,4.7,2.2c1.6,0,3.2-0.7,4.8-2l0.1-0.1l0.3,0.2c0.3,0.3,0.8,0.6,1,0.7l0.3,0.1l0,0l0.2,0.1
				c0.3,0.2,0.6,0.3,0.9,0.5c0.4,0.2,0.7,0.3,1,0.4c0.1,0,1.5,0.5,3.3,1.3l0.3,0.1c1.6,0.6,2.2,1.4,2.3,1.5c2.5,3.7,2.9,11.9,3,12.8
				c0,1.3-0.4,1.6-0.5,1.6c-4.7,2.1-11.6,2.9-14.4,3.2c-0.3-3.7-1.2-12.5-4.2-17l-0.1-0.2C70.4,62.7,69.1,61.6,67.1,60.8L67.1,60.8z
				 M65.3,47.3L65.3,47.3c0.3-0.2,0.4-0.5,0.4-0.8c-0.6-3.4-0.2-4.9-0.1-5.2c1-3,4.1-4.5,4.7-4.7c0.1,0,0.4-0.1,0.6-0.2l0.1,0l0.5,0
				v0l0.1,0c0.1,0,0.2,0,0.3,0l0.2,0c0.1,0,1.3,0.2,3.1,0.7l1.3,0.4c2.3,0.7,3.4,1.9,3.5,2.2c1.8,2.1,1.4,5.2,0.9,6.9
				c-0.1,0.2,0,0.4,0.1,0.6l0.1,0.1c0.1,0.2,0.2,0.9-0.2,2.3c-0.1,0.5-0.2,0.8-0.5,1.1c-0.1,0.1-0.2,0.2-0.2,0.4
				c-0.6,3.6-3.9,7.7-7.3,7.7c-2.9,0-6.3-3.8-6.9-7.7c0-0.2-0.1-0.3-0.2-0.4c-0.2-0.2-0.4-0.6-0.5-1.2
				C65.1,48.4,65.1,47.6,65.3,47.3L65.3,47.3z M39.9,43.3L39.9,43.3c0.4-0.3,0.5-0.7,0.5-1c-0.8-4.6-0.3-6.6-0.1-7.1
				c1.3-4.1,5.6-6,6.4-6.4c0.2-0.1,0.5-0.2,0.8-0.2l0.1,0l0.7,0l0,0l0.1,0c0.1,0,0.3,0,0.4-0.1l0.2,0c0.1,0,1.8,0.2,4.2,1L55,30
				c3.1,0.9,4.5,2.6,4.8,3c2.5,2.8,1.8,7.1,1.2,9.4c-0.1,0.3,0,0.5,0.1,0.8l0.1,0.2c0.2,0.3,0.3,1.3-0.2,3.2
				c-0.1,0.6-0.3,1.1-0.7,1.5c-0.1,0.1-0.2,0.3-0.2,0.5c-0.8,4.9-5.3,10.5-9.9,10.5c-4,0-8.5-5.1-9.3-10.5c0-0.2-0.1-0.4-0.2-0.5
				c-0.3-0.3-0.6-0.9-0.7-1.6C39.6,44.9,39.6,43.8,39.9,43.3L39.9,43.3z M39.9,43.3"/>
			<path fill="#FFFFFF" d="M51.5,91.1L51.5,91.1c-0.2,0-0.3,0-0.5,0l0,0c-0.4,0-0.8,0-1.2,0l-0.5,0c-1.4-0.1-13.8-0.8-22.4-4.5
				l-0.2-0.1c-0.4-0.2-2.1-1-2.2-4.5c0-0.6,0.5-12.9,4.4-18.7l0,0c0.3-0.4,1.6-2,4.3-3c4.6-1.4,7.9-3.2,8.2-3.8
				c0-0.1,0.1-0.2,0.1-0.2c-1.5-2.1-2.6-4.4-3-6.9l0,0c-0.5-0.6-0.8-1.4-1-2.4c-0.6-2.2-0.5-3.9,0.2-5c-0.7-4.6-0.1-6.8,0.2-7.5
				c1.7-5.1,6.8-7.5,7.8-7.9c0.4-0.1,1.2-0.5,2.1-0.5c0.1,0,0.3,0,0.4,0l0.1,0c0.3-0.1,0.5-0.1,0.7-0.1c0.3,0,2.1,0.2,5,1.1l1.7,0.6
				c3.6,1.1,5.5,3.2,6,3.8c2.1,2.4,2.5,5.4,2.3,7.9c1.5-2.9,4.5-4.4,5.4-4.8c0.1,0,0.9-0.4,1.7-0.4c0.1,0,0.2,0,0.3,0l0.1,0
				c0.2,0,0.4-0.1,0.6-0.1c0.3,0,1.7,0.2,3.8,0.8l1.3,0.4c2.8,0.8,4.2,2.4,4.6,2.9c2.3,2.6,1.9,6.2,1.4,8.3c0.4,0.9,0.3,2.1-0.1,3.6
				c-0.1,0.6-0.4,1.2-0.7,1.7c-0.4,1.7-1.2,3.5-2.4,5.1c0.2,0.2,0.6,0.5,1.5,0.9c0.2,0.1,0.4,0.2,0.7,0.3c1.2,0.4,2.3,0.9,3.4,1.3
				l0.2,0.1c2,0.8,3,1.9,3.3,2.2l0.1,0.2c2.6,3.9,3.2,11.6,3.3,13.9l0,0.1c0,2.9-1.5,3.6-2,3.7c-4.6,2.1-11.2,2.9-14.3,3.2
				c-0.3,2.9-1.9,3.7-2.4,3.8C65.3,90.3,51.6,91.1,51.5,91.1L51.5,91.1z M30.1,64c-3.7,5.5-4.2,17.8-4.2,17.9
				c0.1,2.8,1.2,3.2,1.3,3.2l0.3,0.1c8.3,3.6,20.5,4.3,21.9,4.4l0.4,0c0.4,0,0.8,0,1.2,0l0.1,0l0.3,0c0.1,0,0.1,0,0.1,0h0
				c0.5,0,13.7-0.8,21.7-4.4l0.1,0c0.7-0.2,1.4-1.1,1.5-3.2l0-0.6l0.6-0.1c2.8-0.2,9.8-1,14.5-3.1l0.1,0c0.2,0,1-0.4,1-2.4
				c-0.2-4.5-1.2-10.3-3.1-13.1L88,62.6c-0.4-0.5-1.3-1.2-2.7-1.8L85,60.7c-1-0.5-2.1-0.9-3.3-1.3c-0.3-0.1-0.6-0.2-0.8-0.3l-0.1,0
				c-0.1,0-0.2-0.1-0.2-0.1l0,0c0.1,0,0.2,0.1,0.3,0.1c0.3,0.1,0.6,0.2,0.9,0.3l0.1,0c1.1,0.4,2.2,0.8,3.2,1.3l0.3,0.1
				c1.9,0.7,2.6,1.7,2.7,1.8c2.7,4,3.1,12.2,3.1,13.1c0,1.5-0.4,2-0.8,2.2l-0.1,0.1c-4.9,2.2-11.9,3-14.7,3.2l-0.7,0.1l0-0.7
				c-0.2-3.5-1.1-12.2-4.1-16.7l-0.1-0.1c-0.6-0.7-1.8-1.7-3.6-2.4l-0.4-0.1c-0.6-0.3-1.1-0.5-1.6-0.7l-1.5-0.6l1.5-0.7
				c0.8-0.4,1.4-0.7,1.8-1l0.1,0c0,0,0,0,0,0l0,0c0.1-0.1,0.1-0.1,0.2-0.2c-0.5,0.4-1.5,1.1-3.6,1.9L63.2,60L63,59.9
				c-0.5-0.2-0.8-0.3-0.9-0.3c-0.5-0.2-0.8-0.3-1.2-0.5c-1.7-0.9-2.7-1.6-3-2.3l-0.2-0.5l0.3-0.6l0.1-0.1c1.6-2,2.8-4.4,3.2-6.6
				l0-0.1l0.1-0.2l0.1-0.1c0.4-0.5,0.6-1.1,0.7-1.7l0-0.1c0.5-1.8,0.5-3.1,0.1-3.9l-0.2-0.3l0.1-0.4c0.6-2.4,1.1-6.8-1.6-9.9
				c-0.4-0.6-2.1-2.4-5.3-3.3l-1.7-0.6c-2.6-0.8-4.3-1-4.6-1c-0.1,0-0.2,0-0.4,0.1l-0.4,0.1l-0.1,0c-0.1,0-0.2,0-0.3,0
				c-0.7,0-1.4,0.3-1.6,0.4c-0.9,0.4-5.6,2.5-7.1,7.1c-0.2,0.5-0.8,2.5-0.1,7l0.1,0.4l-0.3,0.3c-0.6,0.7-0.6,2.1-0.1,3.9l0,0.1
				c0.1,0.8,0.4,1.4,0.7,1.9l0.1,0.1l0.1,0.3c0.4,2.3,1.4,4.5,2.9,6.5l0.5,0.6l-0.4,0.6c0,0,0,0,0,0l0,0.1c-0.7,2.1-9,4.7-9.1,4.7
				C31.3,62.4,30.1,63.9,30.1,64z M67,60.1l0.3,0.1c2.1,0.8,3.6,2,4.3,2.8l0.2,0.2c3,4.5,4,12.7,4.3,16.7c3-0.3,9-1.1,13.4-3
				c0.1-0.1,0.2-0.4,0.2-1.1c0-0.3-0.4-8.7-2.8-12.4c0,0,0,0,0,0c0,0-0.6-0.7-2-1.2l-0.3-0.1c-1-0.5-2.1-0.9-3.1-1.2l-0.1,0
				c-0.3-0.1-0.7-0.2-1-0.4c-0.4-0.2-0.7-0.4-1-0.5l-0.9-0.6l0,0c-0.1-0.1-0.3-0.2-0.4-0.3c-1.6,1.3-3.3,1.9-4.9,1.9
				c-1.6,0-3.3-0.7-4.8-2.1c-0.1,0.1-0.2,0.2-0.3,0.3l-0.1,0.1c-0.1,0.1-0.2,0.2-0.3,0.2c-0.2,0.1-0.4,0.3-0.7,0.4
				C66.9,60,67,60,67,60.1z M68.1,56.9l0.6,0.6c1.4,1.3,2.9,2,4.2,2c1.4,0,2.9-0.6,4.3-1.8l0.5-0.4l0.8,0.4l0.1,0.1
				c0.3,0.2,0.7,0.6,0.8,0.6l0.6,0.3c-0.8-0.5-1.3-0.9-1.5-1.4l-0.2-0.4l0.2-0.5l0.1-0.1c1.2-1.5,2-3.2,2.4-4.8l0-0.2l0.1-0.3
				c0.3-0.4,0.4-0.8,0.5-1.2l0-0.1c0.3-1.3,0.4-2.2,0.1-2.8l-0.1-0.3l0.1-0.3c0.4-1.8,0.8-5-1.1-7.2c-0.2-0.3-1.4-1.7-3.9-2.4
				l-1.3-0.4c-1.9-0.6-3.2-0.7-3.4-0.8c0,0-0.1,0-0.3,0l-0.3,0.1l-0.1,0c-0.1,0-0.1,0-0.2,0c-0.5,0-1.2,0.2-1.2,0.2
				c-0.7,0.3-4.1,1.9-5.2,5.2c-0.1,0.4-0.6,1.8,0,5.1l0.1,0.4l-0.2,0.3c-0.4,0.5-0.4,1.5,0,2.8l0,0.1c0.1,0.5,0.3,1,0.5,1.3l0.1,0.1
				l0.1,0.2l0,0.1c0.3,1.7,1,3.3,2.2,4.8l0.4,0.5l-0.4,0.5c0,0.1-0.1,0.2-0.3,0.5c0.1-0.1,0.1-0.1,0.2-0.2L68.1,56.9z M59.3,56.4
				c0,0,0.3,0.5,2.3,1.5c0.3,0.1,0.6,0.3,1,0.4c0.1,0,0.3,0.1,0.7,0.2c2.2-0.9,2.9-1.5,3.1-1.7c0,0,0,0,0,0c-1.1-1.5-1.9-3.3-2.2-5
				c-0.4-0.5-0.6-1.1-0.7-1.8c-0.1-0.5-0.2-0.9-0.3-1.3c-0.1,0.3-0.3,0.5-0.5,0.7l0,0C62.1,51.7,60.9,54.2,59.3,56.4L59.3,56.4
				L59.3,56.4z M49.7,89.2h-0.4c-1.4-0.1-13.9-0.9-21.9-4.5c-0.5-0.2-1-1-1.1-2.8l0,0l0,0c0.1-1.3,0.6-12.4,4.1-17.6l0,0
				c0.2-0.2,1.3-1.5,3.4-2.3c1.7-0.5,5.8-1.9,8-3.5l0.1,0c0,0,0.1-0.1,0.1-0.1l0,0c0.2-0.2,0.5-0.6,0.9-0.9l0.7-0.7l0.7,0.7
				c1.9,1.8,3.9,2.8,5.8,2.8c2,0,4-0.9,5.9-2.5l0.5-0.4l0.9,0.5l0.1,0.1c0.4,0.3,1,0.8,1.2,0.9l1.3,0.7l-0.1,0.1
				c0.2,0.1,0.4,0.2,0.5,0.3c0.4,0.2,0.8,0.3,1.2,0.5c0.2,0.1,2.2,0.7,4.4,1.8l0.4,0.1c2.2,0.8,3.2,1.9,3.5,2.3l0,0.1
				c3.5,5.2,4.1,16.3,4.1,17.6c0,1.8-0.5,2.6-0.9,2.8l-0.1,0.1C65.6,88.1,54,89,51.8,89.2l-0.2,0l-0.3,0
				C50.8,89.2,50.2,89.2,49.7,89.2z M28.1,83.5c7.8,3.4,19.9,4.2,21.3,4.3l0.3,0c0.5,0,1,0,1.5-0.1l0.1,0c0.2,0,0.3,0,0.4,0
				c2.2-0.1,13.4-1,20.8-4.3c0.1-0.1,0.3-0.5,0.3-1.7c0-0.4-0.5-11.8-3.9-16.8c-0.2-0.3-1.1-1.1-2.8-1.8l-0.5-0.1
				c-2.2-1-4.2-1.7-4.3-1.7c-0.5-0.2-0.9-0.3-1.4-0.5c-0.5-0.2-0.9-0.5-1.3-0.7l-1-0.6l0,0c-0.3-0.2-0.7-0.5-0.9-0.7
				c-2.1,1.8-4.4,2.7-6.6,2.7c-2.1,0-4.4-1-6.5-2.9c-0.3,0.3-0.5,0.5-0.6,0.6L43,59.3c-0.1,0.1-0.2,0.2-0.4,0.3
				c-2.3,1.6-6.2,3-8.4,3.7c-1.7,0.6-2.6,1.6-2.7,1.8c-3.3,4.9-3.8,15.6-3.8,16.8C27.8,83,28,83.4,28.1,83.5z M50.2,59.6
				c-4.3,0-9.1-5.3-10-11c0-0.1,0-0.1-0.1-0.2c-0.4-0.4-0.7-1-0.9-1.9c-0.3-1-0.6-2.7,0-3.6l0.2-0.2l0.1,0c0.1,0,0.1-0.1,0.1-0.3
				c-0.8-4.7-0.3-6.7-0.1-7.4c1.4-4.4,5.9-6.4,6.8-6.8c0.2-0.1,0.6-0.2,1-0.3l0.2,0l1.2-0.1c0,0,0,0,0,0l0.3-0.1c0.3,0,2,0.2,4.4,1
				l1.7,0.6c3.2,0.9,4.7,2.7,5.1,3.2c2.7,3,2,7.6,1.3,10c0,0.1,0,0.1,0,0.2l0.1,0.1c0.6,0.8,0.2,2.7-0.1,3.8
				c-0.1,0.7-0.4,1.4-0.9,1.8c0,0,0,0,0,0.1C59.9,53.8,55.2,59.6,50.2,59.6z M40.5,43.7c-0.1,0.2-0.2,1,0.2,2.4l0,0.1
				c0.1,0.6,0.3,1,0.5,1.2c0.3,0.3,0.4,0.6,0.4,0.9c0.8,5,5,9.8,8.6,9.8c4.2,0,8.5-5.3,9.2-9.9c0.1-0.3,0.2-0.6,0.4-0.9
				c0.2-0.2,0.4-0.6,0.5-1.1l0-0.1c0.5-2,0.3-2.6,0.3-2.6l-0.1-0.1c-0.3-0.4-0.4-0.9-0.2-1.4c0.6-2.2,1.2-6.1-1.1-8.7
				c-0.3-0.3-1.6-1.9-4.5-2.8l-1.7-0.6c-2.1-0.6-3.6-0.9-4-0.9l-0.1,0c-0.2,0-0.4,0.1-0.5,0.1l-0.8,0.1l0-0.1l0,0
				c-0.3,0.1-0.6,0.1-0.7,0.2c-0.8,0.3-4.8,2.1-6,6c-0.1,0.3-0.6,2.1,0.1,6.7C41.1,42.8,40.9,43.4,40.5,43.7z M73,59.5
				c-3.3,0-6.9-4-7.5-8.3c0,0,0,0,0,0c-0.3-0.3-0.5-0.8-0.7-1.5c-0.2-0.9-0.4-2.1,0-2.8l0.1-0.2l0.1-0.1c0,0,0,0,0,0
				c-0.6-3.5-0.2-5.1,0-5.6c1.1-3.4,4.5-4.9,5.1-5.1c0.2-0.1,0.5-0.2,0.7-0.2l0.2,0l1.1-0.1c0.2,0,1.5,0.2,3.3,0.7l1.3,0.4
				c2.4,0.7,3.5,2,3.9,2.4c2.1,2.3,1.5,5.7,1,7.6l0.1,0.1c0.4,0.5,0.4,1.5,0,2.9c-0.1,0.6-0.3,1.1-0.7,1.4
				C80.3,55.1,76.9,59.5,73,59.5z M65.9,47.7c0,0.1-0.1,0.6,0.2,1.6l0,0.1c0.1,0.4,0.2,0.7,0.3,0.8l0,0c0.2,0.2,0.3,0.5,0.3,0.7
				c0.5,3.6,3.6,7.2,6.2,7.2c3.1,0,6.1-3.8,6.6-7.1c0-0.3,0.2-0.5,0.4-0.7c0.1-0.1,0.3-0.4,0.3-0.7l0-0.1c0.3-1.1,0.3-1.6,0.2-1.8
				l-0.1-0.1c-0.2-0.3-0.3-0.8-0.2-1.2c0.4-1.6,0.9-4.4-0.7-6.3l0,0c-0.2-0.2-1.1-1.3-3.2-2L75,37.6c-1.5-0.5-2.5-0.6-2.9-0.7
				l-0.1,0c-0.1,0-0.2,0-0.4,0.1l-0.9,0.1c-0.1,0-0.2,0.1-0.2,0.1c-0.3,0.1-3.4,1.4-4.3,4.3c-0.1,0.2-0.5,1.6,0.1,4.9
				C66.5,46.8,66.3,47.3,65.9,47.7z"/>
		</g>
	</g>
</g>
</svg>
