<?xml version="1.0" encoding="utf-8"?>
<!-- Generator: Adobe Illustrator 18.1.1, SVG Export Plug-In . SVG Version: 6.00 Build 0)  -->
<svg version="1.1" id="Слой_1" xmlns="http://www.w3.org/2000/svg" xmlns:xlink="http://www.w3.org/1999/xlink" x="0px" y="0px"
	 viewBox="0 0 117 117" enable-background="new 0 0 117 117" xml:space="preserve">
<circle fill="#EE8500" cx="58.4" cy="58.5" r="58.5"/>
<g>
	<path fill="#FFFFFF" d="M58.4,18c-14.1,0-25.5,11.4-25.5,25.5C32.9,57.6,58.4,99,58.4,99s25.5-41.4,25.5-55.5
		C83.9,29.4,72.4,18,58.4,18L58.4,18z M58.4,63.2c-10.9,0-19.7-8.8-19.7-19.7c0-10.9,8.8-19.7,19.7-19.7c10.9,0,19.7,8.8,19.7,19.7
		C78,54.4,69.2,63.2,58.4,63.2L58.4,63.2z M58.4,63.2"/>
	<path fill="#FFFFFF" d="M66.2,33.9l2.6,2.7v13.7c0,0.2,0,0.4-0.1,0.5c-0.2,0.2-0.8,0.2-1,0.2c-0.6,0-1.1-0.1-1.3-0.3
		c-0.1-0.1-0.1-0.3-0.1-0.3V36.9h-2.3v-6.6H51.1V54h-2.8v3.3h18.4V54h-2.8V38.3h1v12c0,0.1,0,0.7,0.5,1.3c0.5,0.5,1.2,0.8,2.3,0.8
		h0.2c0.5,0,1.3-0.1,1.8-0.6c0.4-0.3,0.5-0.8,0.5-1.4V36l-3-3L66.2,33.9z M62.2,39.6H53V33h9.2V39.6z M62.2,39.6"/>
</g>
</svg>
