<?xml version="1.0" encoding="utf-8"?>
<!-- Generator: Adobe Illustrator 18.1.1, SVG Export Plug-In . SVG Version: 6.00 Build 0)  -->
<svg version="1.1" id="Слой_1" xmlns="http://www.w3.org/2000/svg" xmlns:xlink="http://www.w3.org/1999/xlink" x="0px" y="0px"
	 viewBox="0 0 117 117" enable-background="new 0 0 117 117" xml:space="preserve">
<circle fill="#EE8500" cx="58.5" cy="58.5" r="58.5"/>
<g>
	<g>
		<path fill="#FFFFFF" d="M82.9,78.7v-9.8c0-2.1-1.7-3.8-3.8-3.8h-1V29.3c0-0.3-0.2-0.6-0.4-0.8l-2.4-1.6c-0.6-0.4-1.5,0-1.5,0.8
			v11.5l-0.7-1.9c-1-2.6-3.5-4.4-6.3-4.4H50.2c-2.8,0-5.3,1.8-6.3,4.4l-0.7,1.9V27.7c0-0.8-0.8-1.2-1.5-0.8l-2.4,1.6
			c-0.3,0.2-0.4,0.5-0.4,0.8v35.8h-1c-2.1,0-3.8,1.7-3.8,3.8v9.8h-1.6c-0.5,0-1,0.4-1,1v5.3c0,0.5,0.4,1,1,1h4.1v2.5
			c0,1.1,0.9,1.9,1.9,1.9h5c1.1,0,1.9-0.9,1.9-1.9v-2.5h26.2v2.5c0,1.1,0.9,1.9,1.9,1.9h5c1.1,0,1.9-0.9,1.9-1.9v-2.5h4.1
			c0.5,0,1-0.4,1-1v-5.3c0-0.5-0.4-1-1-1H82.9z M44.5,44.5h28.1v9.4H44.5V44.5z M43.8,76h-3.3c-1,0-1.8-0.8-1.8-1.8v0
			c0-1,0.8-1.8,1.8-1.8h3.3c1,0,1.8,0.8,1.8,1.8v0C45.6,75.2,44.8,76,43.8,76L43.8,76z M65,76.5H52c-1.1,0-1.9-0.9-1.9-1.9V62.5
			c0-1.1,0.9-1.9,1.9-1.9h13c1.1,0,1.9,0.9,1.9,1.9v12.1C66.9,75.7,66,76.5,65,76.5L65,76.5z M76.4,76h-3.3c-1,0-1.8-0.8-1.8-1.8v0
			c0-1,0.8-1.8,1.8-1.8h3.3c1,0,1.8,0.8,1.8,1.8v0C78.2,75.2,77.4,76,76.4,76L76.4,76z M64.7,67.6H52.3c-0.5,0-0.9-0.4-0.9-0.9v0
			c0-0.5,0.4-0.9,0.9-0.9h12.4c0.5,0,0.9,0.4,0.9,0.9v0C65.6,67.2,65.2,67.6,64.7,67.6L64.7,67.6z M64.7,63.8H52.3
			c-0.5,0-0.9-0.4-0.9-0.9v0c0-0.5,0.4-0.9,0.9-0.9h12.4c0.5,0,0.9,0.4,0.9,0.9v0C65.6,63.4,65.2,63.8,64.7,63.8L64.7,63.8z
			 M64.7,75.2H52.3c-0.5,0-0.9-0.4-0.9-0.9v0c0-0.5,0.4-0.9,0.9-0.9h12.4c0.5,0,0.9,0.4,0.9,0.9v0C65.6,74.8,65.2,75.2,64.7,75.2
			L64.7,75.2z M64.7,71.4H52.3c-0.5,0-0.9-0.4-0.9-0.9v0c0-0.5,0.4-0.9,0.9-0.9h12.4c0.5,0,0.9,0.4,0.9,0.9v0
			C65.6,71,65.2,71.4,64.7,71.4L64.7,71.4z M64.7,71.4"/>
	</g>
</g>
</svg>
