<?xml version="1.0" encoding="utf-8"?>
<!-- Generator: Adobe Illustrator 18.1.1, SVG Export Plug-In . SVG Version: 6.00 Build 0)  -->
<svg version="1.1" id="Слой_1" xmlns="http://www.w3.org/2000/svg" xmlns:xlink="http://www.w3.org/1999/xlink" x="0px" y="0px"
	 viewBox="0 0 117 117" enable-background="new 0 0 117 117" xml:space="preserve">
<circle fill="#EE8500" cx="58.5" cy="58.5" r="58.5"/>
<g>
	<g>
		<path fill="#FFFFFF" d="M44.7,47.5h26.4c0.4,0,0.7-0.3,0.7-0.7v-20c0-0.4-0.3-0.7-0.7-0.7H44.7c-0.4,0-0.7,0.3-0.7,0.7v20
			C44,47.1,44.3,47.5,44.7,47.5L44.7,47.5z M45.5,27.5h24.9V46H45.5V27.5z M45.5,27.5"/>
		<path fill="#FFFFFF" d="M71.1,48H44.7c-0.7,0-1.3-0.6-1.3-1.3v-20c0-0.7,0.6-1.3,1.3-1.3h26.4c0.7,0,1.3,0.6,1.3,1.3v20
			C72.3,47.4,71.8,48,71.1,48z M44.7,26.5c-0.1,0-0.2,0.1-0.2,0.2v20c0,0.1,0.1,0.2,0.2,0.2h26.4c0.1,0,0.2-0.1,0.2-0.2v-20
			c0-0.1-0.1-0.2-0.2-0.2H44.7z M70.8,46.5H45V27h25.9V46.5z M46,45.5h23.8V28H46V45.5z"/>
	</g>
	<g>
		<path fill="#FFFFFF" d="M85.8,50.6h-1.6l0-5.8c0-0.2,0-0.3-0.1-0.5l-4.3-8.6c-0.1-0.2-0.2-0.3-0.4-0.4c-0.2-0.1-0.4,0-0.6,0
			l-2.5,1.2c-0.1,0-0.1,0.1-0.2,0.2v-8.3c0-3.9-3.2-7-7-7H46.7c-3.9,0-7,3.1-7,7v59.3h-0.9c-0.4,0-0.7,0.3-0.7,0.7v6.2
			c0,0.4,0.3,0.7,0.7,0.7h38.3c0.4,0,0.7-0.3,0.7-0.7v-6.2c0-0.4-0.3-0.7-0.7-0.7h-0.9v-1.3c3.8-0.4,6.8-3.6,6.8-7.5V61.4h0.5
			c0.2,0,0.4-0.1,0.5-0.2c0.1-0.1,0.2-0.3,0.2-0.5l0-3.7h1.6c1.8,0,3.2-1.4,3.2-3.2C89,52,87.6,50.6,85.8,50.6L85.8,50.6z
			 M78.9,50.6c-0.4,0-0.7,0.3-0.7,0.7v4.9c0,0.4,0.3,0.7,0.7,0.7h1v2.9l-3.6-0.1V49l3.6-1.2v2.8H78.9z M79.9,45.5v0.8l-3.8,1.2v-9.6
			L79.9,45.5z M46.7,23h22.3c3.1,0,5.5,2.5,5.5,5.5v22H41.2v-22C41.2,25.5,43.7,23,46.7,23L46.7,23z M76.3,94H39.5v-4.7h36.8V94z
			 M41.2,87.8V52h33.4v35.8H41.2z M81.4,79c0,3.1-2.3,5.6-5.3,6V61.3l4.5,0.1h0c0,0,0,0,0,0h0.8V79z M82.7,59.9h-1.3V57h1.3
			L82.7,59.9z M85.8,55.5h-6.1v-3.4h6.1c0.9,0,1.7,0.8,1.7,1.7C87.5,54.7,86.7,55.5,85.8,55.5L85.8,55.5z M85.8,55.5"/>
		<path fill="#FFFFFF" d="M77.1,96H38.8c-0.7,0-1.3-0.6-1.3-1.3v-6.2c0-0.7,0.6-1.3,1.3-1.3h0.4V28.5c0-4.1,3.4-7.5,7.6-7.5h22.3
			c4.2,0,7.6,3.4,7.6,7.5v7.4l2-1c0.3-0.1,0.7-0.2,1-0.1c0.3,0.1,0.6,0.3,0.7,0.6l4.3,8.6c0.1,0.2,0.2,0.5,0.1,0.7l0,5.3h1.1
			c2,0,3.7,1.7,3.7,3.7c0,2-1.7,3.7-3.7,3.7h-1.1l0,3.2c0,0.3-0.1,0.7-0.4,0.9c-0.2,0.2-0.5,0.4-0.9,0.4V79c0,4-2.9,7.3-6.8,7.9v0.4
			h0.4c0.7,0,1.3,0.6,1.3,1.3v6.2C78.3,95.4,77.7,96,77.1,96z M38.8,88.3c-0.1,0-0.2,0.1-0.2,0.2v6.2c0,0.1,0.1,0.2,0.2,0.2h38.3
			c0.1,0,0.2-0.1,0.2-0.2v-6.2c0-0.1-0.1-0.2-0.2-0.2h-1.5V86l0.5,0c3.6-0.4,6.4-3.4,6.4-7V60.9h1c0.1,0,0.1,0,0.2-0.1
			c0,0,0.1-0.1,0.1-0.2l0-4.2h2.1c1.5,0,2.7-1.2,2.7-2.7c0-1.5-1.2-2.7-2.7-2.7h-2.1l0-6.4l0,0c0-0.1,0-0.1,0-0.2L79.4,36
			c0-0.1-0.1-0.1-0.1-0.1c-0.1,0-0.1,0-0.2,0l-2.5,1.2c0,0,0,0-0.1,0.1l-0.1,0.1l4,8.1v1.3l-4.8,1.6V28.5c0-3.6-2.9-6.5-6.5-6.5
			H46.7c-3.6,0-6.5,2.9-6.5,6.5v59.8H38.8z M76.6,40.1v6.7l2.7-0.9v-0.3L76.6,40.1z M76.8,94.5H39v-5.7h37.8V94.5z M40,93.5h35.8
			v-3.7H40V93.5z M75.1,88.3H40.7V51.5h34.4V88.3z M41.7,87.3h32.4V52.5H41.7V87.3z M75.6,85.6V60.7l6.3,0.1V79
			c0,3.3-2.5,6.1-5.8,6.5L75.6,85.6z M76.6,61.8v22.6c2.5-0.6,4.3-2.8,4.3-5.4V61.9h-0.3L76.6,61.8z M83.2,60.4h-2.3v-3.9h2.3
			L83.2,60.4z M81.9,59.4h0.3l0-1.9h-0.3V59.4z M80.4,60.4l-4.6-0.1V48.6l4.6-1.5v4h-1.5c-0.1,0-0.2,0.1-0.2,0.2v4.9
			c0,0.1,0.1,0.2,0.2,0.2h1.5V60.4z M76.8,59.3l2.6,0.1v-1.9h-0.5c-0.7,0-1.3-0.6-1.3-1.3v-4.9c0-0.7,0.6-1.3,1.3-1.3h0.5v-1.5
			l-2.6,0.8V59.3z M85.8,56h-6.6v-4.4h6.6c1.2,0,2.2,1,2.2,2.2C88,55,87,56,85.8,56z M80.2,55h5.6c0.7,0,1.2-0.5,1.2-1.2
			c0-0.7-0.5-1.2-1.2-1.2h-5.6V55z M75.1,51H40.7V28.5c0-3.3,2.7-6,6.1-6h22.3c3.3,0,6.1,2.7,6.1,6V51z M41.7,50h32.4V28.5
			c0-2.8-2.3-5-5-5H46.7c-2.8,0-5,2.2-5,5V50z"/>
	</g>
</g>
</svg>
