<?xml version="1.0" encoding="utf-8"?>
<!-- Generator: Adobe Illustrator 18.1.1, SVG Export Plug-In . SVG Version: 6.00 Build 0)  -->
<svg version="1.1" id="Слой_1" xmlns="http://www.w3.org/2000/svg" xmlns:xlink="http://www.w3.org/1999/xlink" x="0px" y="0px"
	 viewBox="0 0 117 117" enable-background="new 0 0 117 117" xml:space="preserve">
<circle fill="#EE8500" cx="58.5" cy="58.5" r="58.5"/>
<g>
	<g>
		<path fill="#FFFFFF" d="M88.2,47l0.3,40.6c0,4.9-3.9,8.9-8.8,8.9l-15.6,0.1c-4.9,0-8.9-3.9-8.9-8.8l-0.3-34.8
			c-1.6,0.4-2.4,1-2.7,1.4c-0.4,0.5-0.4,0.9-0.4,1l0,0.2l0,0.1L52,84.2c0,6-4.8,10.9-10.7,10.9c-6,0-10.9-4.8-10.9-10.8l-0.2-26.8
			l-0.3,0l-0.1-12.9l-1.3-1l1.3-1.6l0-1.2l3.7,0l0.1,16.7l-0.2,0l0.2,26.8c0,4.2,3.5,7.6,7.7,7.6s7.6-3.5,7.6-7.7l-0.2-28.4
			c-0.1-0.5-0.1-1.9,1-3.3c1-1.3,2.8-2.3,5.3-2.8l0-2.5c0-4.9,3.9-8.9,8.8-8.9l3.8,0l0-2.1c-2.7-1.4-4.6-4.2-4.6-7.4
			c0-4.6,3.7-8.4,8.3-8.5c4.6,0,8.4,3.7,8.5,8.3c0,2.1-0.7,4-2,5.5l5.4,0l0-1.9c0-0.6,0.5-1.1,1.1-1.1c0.6,0,1.1,0.5,1.1,1.1l0,5.1
			c0,0.6-0.5,1.1-1.1,1.1c-0.6,0-1.1-0.5-1.1-1.1l0-1.6l-7.4,0.1c-0.1,0.1-0.2,0.1-0.3,0.2l0,2.3l3.8,0C84.2,38.2,88.2,42.1,88.2,47
			L88.2,47z M75.1,34.1c1.7-1.2,2.8-3.2,2.8-5.5c0-3.7-3-6.6-6.7-6.6c-3.7,0-6.6,3-6.6,6.7c0,2.3,1.2,4.2,2.9,5.4L75.1,34.1z
			 M82.7,47.8l-1.1,0l0.3,36.1l1.1,0L82.7,47.8z M71.4,27.9c-0.1,0-0.2,0-0.3,0.1l-3.7-0.9l2.9,2.2c0.1,0.5,0.6,0.8,1.1,0.8
			c0.6,0,1.1-0.5,1.1-1.1C72.5,28.4,72,27.9,71.4,27.9L71.4,27.9z M71.4,27.9"/>
	</g>
</g>
</svg>
