<svg xmlns="http://www.w3.org/2000/svg" width="87.617" height="53.344" viewBox="0 0 87.617 53.344"><path d="M30.54 33.832c-5.388 0-9.756 4.367-9.756 9.757 0 5.387 4.368 9.754 9.756 9.754 5.387 0 9.755-4.365 9.755-9.755s-4.368-9.758-9.755-9.758zm0 14.58c-2.665 0-4.825-2.16-4.825-4.824s2.16-4.826 4.825-4.826 4.825 2.16 4.825 4.826c0 2.665-2.16 4.825-4.825 4.825zM58.572 41.723c-3.17 0-5.74 2.57-5.74 5.74 0 3.168 2.57 5.74 5.74 5.74s5.74-2.572 5.74-5.74c0-3.172-2.568-5.74-5.74-5.74zm0 8.556c-1.555 0-2.816-1.263-2.816-2.817 0-1.56 1.262-2.816 2.816-2.816 1.557 0 2.816 1.258 2.816 2.816.003 1.555-1.26 2.816-2.816 2.816zM2.2 24.836c0 1.247 1.014 2.26 2.26 2.26s2.263-1.013 2.263-2.26-1.015-2.26-2.262-2.26-2.26 1.013-2.26 2.26zm2.26-.662c.366 0 .663.297.663.662 0 .365-.297.662-.662.662-.364 0-.66-.297-.66-.662 0-.365.296-.662.66-.662z"/><path d="M85.2 50.404l-3.573-5.197v-3.94l1.148-1.224-.164-2.35-5.15 1.627-.087-.142-.506.056c-.092.01-2.275.264-4.213 2.203-.697.695-1.16 1.256-1.467 1.694l-2.24-2.234v-1.88l-1.762-.775v-3.178l1.613-.13.13-.577c.032-.15.173-.97-.42-2.15-.65-1.307-2.335-2.365-5.456-3.43-2.414-.82-5.45-1.78-6.668-2.162-.092-2.226-.164-4.538-.154-5.534l.463.118v-3.85c0-.433-.355-.892-1.01-.892-.303 0-.684.09-1.2.284-1.6.6-2.63 1.86-2.63 3.214v5.2l-.94-.34c-.022-1.065-.116-3.51-.493-6.303-.514-3.838-3.14-5.2-5.23-5.2-.153 0-.337 0-.54-.002v-.56c0-1.217-.99-2.208-2.208-2.208H40.94c-1.217 0-2.208.99-2.208 2.208v.504l-10.213.138-2.51 15.544-.17.086-.066-14.94-15.61-12.564c-.276-.282-.59-.534-.854-.692L8.8.434l-.096.044c-.666-.315-1.394-.48-2.13-.48-2.76 0-5.008 2.248-5.008 5.01 0 .06.003.12.01.223L0 25.99l1.533 2.64 8.35 3.28.21-.036c.08-.013 1.985-.315 4.808-1.692 3.214-1.567 3.044-3.59 2.656-4.654-.267-.74-2.404-7.28-2.522-7.64l2.683 2.505 1.343 20.205 1.313-2.12c.025-.04 2.514-4.01 6.14-5.305 1.543-.552 3.034-.83 4.43-.83 4.593 0 7.584 3.04 9.285 5.593 2.047 3.072 1.154 8.45 1.145 8.506l-.16.937h11.05l.064-.73c.02-.237.564-5.818 6.246-5.818s6.5 5.768 6.53 6.012l.185 1.402 1.922-1.52 2.045 1.345v1.542c0 2.12.53 2.984.637 3.138l.238.34h17.484v-1.96l-2.413-.726zm-14.124 1.08c-.102-.34-.223-.94-.225-1.877v-2.4l-3.73-2.46-.74.587c-.653-2.126-2.577-6.104-7.81-6.104-5.19 0-7.246 3.94-7.736 6.55H43.07c.19-1.835.347-5.94-1.51-8.73-1.918-2.877-5.316-6.307-10.616-6.307-1.58 0-3.253.313-4.97.924-2.472.883-4.425 2.76-5.626 4.176l-1.075-16.186-11.79-11L4.302 21.38l.64.672.22.062c1.018.26 1.81 1.088 2.02 2.11l.045.226.864.9 5.08-3.247.812-2.282c.68 2.074 1.867 5.694 2.07 6.257.136.37.546 1.5-1.852 2.67-2.08 1.017-3.62 1.397-4.15 1.51l-7.414-2.91-1.003-1.73L3.175 5.3l-.01-.29c0-1.88 1.53-3.41 3.41-3.41.598 0 1.19.16 1.71.463l.098.06c.235.148.448.32.705.575l15.09 12.152.075 16.755L27.463 30l2.423-15.026 10.447-.142V12.75c0-.336.274-.61.61-.61h1.5c.336 0 .61.275.61.61v2.146l.79.007c.535.005 1.01.01 1.35.01.734 0 3.17.274 3.644 3.813.48 3.562.486 6.625.486 6.655v.563l4.133 1.49V19.96c0-.774.8-1.42 1.594-1.717l.047-.018v1.41c-.156.134-.283.31-.367.522-.07.18-.2.51.086 7.09l.023.564.536.167c.04.012 4.11 1.276 7.166 2.315 2.582.88 4.11 1.767 4.54 2.63.103.202.167.38.21.53l-1.703.137v5.696l1.763.776v1.498l3.477 3.474 1.182 1.27.168-1.68c0-.007.188-.63 1.61-2.054 1.034-1.036 2.16-1.47 2.776-1.642l3.56 5.873-1.32-6.228L80.624 40l-.594.63V45.7l3.976 5.78h-12.93v.002zM14.323 17.227l-1.326.588-1.15 3.233-3.32 2.122c-.438-1.096-1.317-1.98-2.417-2.427l2.268-9.065 5.945 5.55z"/><path d="M6.82 3.133c-1.246 0-2.26 1.015-2.26 2.263 0 1.247 1.014 2.26 2.26 2.26s2.263-1.014 2.263-2.26c0-1.248-1.015-2.263-2.262-2.263zm0 2.925c-.364 0-.66-.297-.66-.662 0-.366.296-.664.66-.664.366 0 .663.298.663.664 0 .365-.297.662-.662.662zM47.002 20.846c0-.79.004-2.434-.87-3.31-.37-.37-.85-.563-1.387-.563H31.672l-2.18 13.024 8.91.797 3.218 4.308 6.733-.002-.09-.88c-.507-5.023-1.26-12.71-1.26-13.374zm-4.58 12.656l-3.11-4.16.465.03v-1.68c.002-.622-.502-1.126-1.126-1.126h-3.156v-3.254c0-.623-.504-1.126-1.127-1.126h-1.245v5.388c-.004.04-.012.075-.012.116v1.024l-1.756-.157 1.672-9.984h11.718c.133 0 .197.037.253.093.407.407.405 1.74.403 2.253 0 .755.88 9.57 1.182 12.58l-4.16.002z"/></svg>