<svg xmlns="http://www.w3.org/2000/svg" width="59" height="50.813" viewBox="0 0 59 50.813"><path d="M17.033 40.397l.056.015 3.717-.23-.015-4.07h2v-.366c.005-1.22.088-29.91 0-31.456-.034-.62.09-.8.128-.842.05-.053.316-.016.613.184.152.104.305.194.45.28.143.085.276.165.39.246l-1.44.637V35.8h1.01v4.68l10.728-1.893-.01-.318c-.033-.858.135-2.19.608-2.47.58-.344 4.654-1.194 7.22-1.678l.02 1.51 12-1.18.332-.057v-.02c1.08-.227 2.076-.98 2.833-2.15C58.527 30.9 59 29.16 59 27.33c0-3.767-2.008-6.888-4.573-7.105l-.075-.008c-.068-.007-.138-.013-.207-.013-.16 0-9.322.04-11.168.05v-4.234c.265 1.956 1.23 3.413 2.39 3.413.093 0 .183-.01.272-.028l5.684-.18v-.036c.1.022.2.038.307.038 1.362 0 2.468-2.04 2.468-4.557 0-2.516-1.105-4.557-2.468-4.557-.13 0-.258.022-.383.06l-5.878.303c-1.16 0-2.127 1.456-2.392 3.412V9.12h-15.52c-.01-1.742-.024-3.913-.024-4.914 0-1.996-2.443-3.813-4.06-4.14-1.137-.23-2.108.15-2.705.938l-.003-.59-3.7-.31L.943 3.002l.21 33.393.827.21v1.02h.735v-.836l14.318 3.61zM49.16 14.665c0-1.023.19-1.956.5-2.716-.31.76-.5 1.693-.5 2.715zm-3.793-3.458h.038l3.88-.2c-.54.946-.86 2.23-.86 3.66 0 1.534.38 2.914 1.005 3.88l-3.813.12h-.06l-.06.014c-.05.01-.092.016-.13.016-.817 0-1.73-1.6-1.73-3.744-.002-2.143.913-3.745 1.73-3.745zm8.778 9.73c.045 0 .09.006.135.01l.09.008c2.184.186 3.896 2.984 3.896 6.374 0 1.69-.43 3.288-1.21 4.497-.71 1.1-1.642 1.763-2.624 1.87l-11.2 1.123-.207-13.833 11.12-.05zM20.78 2.88c.06-1.04.593-2.15 1.917-2.15.168 0 .347.02.53.058 1.366.275 3.472 1.867 3.472 3.42 0 1.073.015 3.49.026 5.284l.002.365h15.514v23.56c-1.416.27-6.524 1.263-7.348 1.75-.847.5-.963 2.096-.974 2.806l-9.244 1.63v-4.538h-1.004V5.275l1.853-.82-.2-.353c-.21-.372-.575-.59-.962-.82-.133-.08-.274-.164-.414-.26-.638-.428-1.214-.447-1.563-.08-.258.272-.364.727-.327 1.39.082 1.433.01 27.616 0 31.044h-1.27l-.03-8.23c-.018-9.398-.037-23.258.02-24.265zM1.68 3.617L16.985.85v38.776l-15.1-3.808-.203-32.202zM1.313 37.763H.207c-.114 0-.207.093-.207.206v6.008c0 .114.093.207.207.207l1.105.414c.114 0 .207-.094.207-.208V37.97c0-.115-.094-.207-.207-.207zM16.78 42.32h-1.105c-.116 0-.208.093-.208.208v7.664c0 .114.094.206.208.206l1.104.414 41.896-10.657v-4.557L16.98 42.52c-.002-.11-.09-.2-.2-.2zM2.83 44.668l11.37 4.33v-6.145l-11.37-2.95"/><path d="M36.285 15.353h-4.267l-2.923 7.187h3.45l-1.58 6.902 5.654-8.627h-3.26"/><path d="M24.91 12.176v20.962c0 .36.287.655.64.655h.024l14.795-1.865c.352 0 .64-.296.64-.656V12.176c0-.36-.288-.653-.64-.653H25.55c-.353 0-.64.293-.64.653zm.736.08h14.627v18.945l-14.627 1.843V12.257zM14.875 2.597h-.016L2.974 4.96c-.33 0-.588.288-.588.655V34.29c0 .35.232.627.54.653l11.93 2.453.075.008c.33 0 .588-.288.588-.654V3.245c0-.363-.252-.648-.645-.648zM3.122 9.437l1.98-.258v3.853l-1.98.058V9.44zm7.983 3.42l-2.265.067V8.692l2.266-.296v4.462zM11.84 8.3l2.943-.385v4.836l-2.942.086V8.3zm2.943 14.495l-2.942-.192V18.8h2.943v3.995zm-3.678-.24l-2.265-.15v-3.604h2.266v3.754zm-3-3.754v3.558l-2.267-.148v-3.408h2.266zm-2.267-.734V13.75l2.266-.067v4.384H5.838zm2.266 5.03v4.333l-2.266-.232v-4.25l2.266.147zm.736.048l2.266.147v4.447l-2.266-.23v-4.363zm0-5.078V13.66l2.266-.066v4.472H8.84zm0-10.116V4.535l2.266-.45v3.57L8.84 7.95zm-.736.097l-2.266.295v-3.21l2.266-.45v3.365zm0 .74v4.158l-2.266.066V9.084l2.266-.296zm-4.982 5.04l1.98-.058v4.295h-1.98v-4.237zm1.982 4.974v3.36l-1.98-.13V18.8h1.98zm0 4.1v4.223l-1.982-.203v-4.15l1.982.13zm-1.982 4.76l1.98.2v2.895l-1.98-.343V27.66zm2.716.276l2.266.232v3.104l-2.266-.392v-2.944zm2.266 4.084v3.235l-2.266-.465v-3.16l2.266.39zm.736.127l2.266.392v3.333l-2.266-.466v-3.26zm0-.747v-3.156l2.266.232v3.315L8.84 31.4zm3-2.848l2.943.302v3.574l-2.942-.51v-3.366zm0-.74V23.34l2.943.192v4.582l-2.942-.302zm2.943-9.746H11.84v-4.493l2.943-.086v4.58zm0-10.68l-.027-.208-2.915.38V3.94l2.943-.584v4.032zM5.103 5.28v3.16l-1.98.258V5.673l1.98-.394zm-1.98 25.88l1.98.342v3.138l-1.98-.407V31.16zm8.718 4.864v-3.357l2.908.502.035-.205v3.664l-2.942-.606z"/></svg>