<svg xmlns="http://www.w3.org/2000/svg" width="64" height="53.458" viewBox="0 0 64 53.458"><path d="M9.587 42.952c-2.904 0-5.254 2.354-5.254 5.254 0 2.9 2.352 5.254 5.254 5.254 2.9 0 5.252-2.354 5.252-5.254 0-2.903-2.353-5.254-5.253-5.254zm0 7.506c-1.245 0-2.252-1.008-2.252-2.252s1.007-2.252 2.252-2.252c1.242 0 2.25 1.008 2.25 2.252s-1.008 2.252-2.25 2.252zM63.912 31.842c-.324-.775-1.88-1.307-4.234-.574-1.796.56-25.873 9.7-37.18 14.002l-1.803-2.148 27.856-9.857c.124.52.587.906 1.146.906.558 0 1.022-.386 1.145-.906.19.127.416.202.66.202.65 0 1.177-.527 1.177-1.178 0-.16-.03-.313-.09-.453l1.083-.383s1.987-1.098 1.463-2.353c-.323-.78-1.88-1.31-4.235-.576-1.982.618-25.85 8.486-33.275 10.936l-2.465-2.938-.314-.313H8.432V12.656c5.644-3.516 5.644-4.582 5.644-4.935V3.02c0-1.666-1.354-3.02-3.018-3.02H3.02C1.354 0 0 1.354 0 3.02v4.703c0 .358 0 1.442 5.646 5.024V36.21h-.098c-.173 0-.315.14-.315.312v5.176c0 .174.14.313.315.313h9.094c.06 0 .12-.017.167-.048l1.95 5.695.162-.048 4.647 2.948 36.047-14.43c-.002.025-.004.054-.004.08 0 .648.527 1.177 1.178 1.177.558 0 1.022-.39 1.146-.908.188.127.414.203.657.203.65 0 1.177-.527 1.177-1.176 0-.352-.15-.664-.396-.88l1.073-.43c.002.002 1.99-1.096 1.465-2.352zm-12.004-2.54c.326-.08 1.563.567 1.313.687-.245.116-2.456.94-2.768.888-.313-.053-1.72-.563-1.57-.73.152-.174 2.7-.77 3.026-.847zM5.644 10.17c-.216-.145-.438-.296-.663-.452C3.045 8.373 2.37 7.673 2.16 7.414V3.02c0-.475.385-.86.86-.86h2.626v8.01zM8.43 2.16h2.626c.476 0 .86.383.86.86V7.4c-.22.262-.918.965-2.905 2.308-.195.133-.39.262-.58.387V2.16zm53.576 30.572c-.248.117-2.458.94-2.77.89-.314-.054-1.718-.563-1.567-.733.15-.17 2.697-.766 3.024-.844.326-.08 1.56.57 1.312.686z"/></svg>