<svg xmlns="http://www.w3.org/2000/svg" width="73" height="37.957" viewBox="0 0 73 37.957"><path d="M45.8 17.896h4.464V6.66H45.8v11.236zm1.712-9.522h1.04v7.81h-1.04v-7.81zM50.534 6.66v11.236h10.812L59.786 6.66h-9.252zm1.714 9.524v-7.81h6.048l1.084 7.81h-7.132zM73 20.76v-3.83c0-1.394-1.923-2.297-4.64-3.422-.402-.165-.76-.313-1.033-.44-1.1-.504-3.063-.906-4.125-1.098V7.85c0-1.41-.568-3.776-4.38-3.776H45.775c-2.287 0-2.287 1.397-2.287 3.333v11.585h-3.592L44.906 0h-4.56l-2.475 6.276H0v16.43l.874-.02c.052 0 5.17-.11 10.386-.11 4.637 0 6.786 4.984 6.807 5.035l.698 1.66.848-1.586c.028-.054 2.852-5.218 8.438-5.218 5.58 0 7.897 4.498 7.897 6.904 0 2.582-.618 4.688-.624 4.71l-.328 1.102h11.983l-.46-1.17c-.007-.02-.655-1.695-.655-4.09 0-2.21 2.494-7.51 8.666-7.51 6.127 0 8.17 5.44 8.17 6.903 0 1.723-.533 4.947-.538 4.98l-.166.995H73V23.01h-1.432v-2.25H73zm-1.713 12.818h-7.283c.167-1.142.408-3.015.406-4.264 0-2.535-2.844-8.617-9.885-8.617-6.91 0-10.377 5.912-10.377 9.223 0 1.47.217 2.71.422 3.547h-7.34c.197-.947.43-2.42.43-4.098 0-3.005-2.82-8.618-9.61-8.618-4.764 0-7.763 3.06-9.114 4.854-1.11-1.795-3.56-4.745-7.676-4.745-3.955 0-7.855.065-9.547.097V7.987h37.325l2.476-6.274h1.168l-5.008 18.992H45.2V7.407c0-.71 0-1.44.047-1.565.01-.006.12-.055.528-.055H58.82c2.345 0 2.668.99 2.668 2.062v5.576l.725.112c.855.134 3.313.588 4.396 1.087.288.133.667.29 1.093.466.913.38 3.338 1.383 3.583 1.84v2.117h-1.43v5.675h1.43v8.856z"/><path d="M10.38 23.427c-4.014 0-7.266 3.252-7.266 7.265 0 4.015 3.252 7.265 7.266 7.265 4.013 0 7.265-3.25 7.265-7.265 0-4.013-3.252-7.265-7.265-7.265zm0 10.815c-1.96 0-3.55-1.59-3.55-3.55 0-1.96 1.588-3.55 3.55-3.55 1.96 0 3.55 1.59 3.55 3.55 0 1.96-1.59 3.55-3.55 3.55zM27.553 23.427c-4.012 0-7.265 3.252-7.265 7.265 0 4.015 3.253 7.265 7.265 7.265 4.015 0 7.267-3.25 7.267-7.265 0-4.013-3.252-7.265-7.267-7.265zm0 10.815c-1.96 0-3.55-1.59-3.55-3.55 0-1.96 1.59-3.55 3.55-3.55 1.96 0 3.55 1.59 3.55 3.55 0 1.96-1.588 3.55-3.55 3.55zM54.032 23.427c-4.013 0-7.267 3.252-7.267 7.265 0 4.015 3.254 7.265 7.267 7.265s7.266-3.25 7.266-7.265c0-4.013-3.253-7.265-7.266-7.265zm0 10.815c-1.962 0-3.552-1.59-3.552-3.55 0-1.96 1.59-3.55 3.552-3.55 1.96 0 3.55 1.59 3.55 3.55 0 1.96-1.59 3.55-3.55 3.55z"/></svg>