<svg xmlns="http://www.w3.org/2000/svg" viewBox="0 0 39.7 29.8"><path fill="#FFF" d="M0 19.3C0 15.6 1.1 12 3.3 8.4S8.4 2 12.1 0l2.8 4.2c-4.2 2.9-6.7 6.5-7.4 11 .8-.3 1.7-.5 2.5-.5 2.2 0 4.1.7 5.5 2.1 1.4 1.4 2.2 3.2 2.2 5.4s-.8 4-2.3 5.5c-1.5 1.4-3.4 2.1-5.8 2.1-2.9 0-5.2-.9-7-2.8C.9 25.2 0 22.6 0 19.3zm22.1 0c0-3.7 1.1-7.3 3.3-10.9S30.5 2 34.2 0L37 4.2c-4.2 2.9-6.7 6.5-7.4 11 .8-.3 1.7-.5 2.5-.5 2.2 0 4.1.7 5.5 2.1 1.4 1.4 2.2 3.2 2.2 5.4s-.8 4-2.3 5.5c-1.5 1.4-3.4 2.1-5.8 2.1-2.9 0-5.2-.9-7-2.8-1.7-1.8-2.6-4.4-2.6-7.7z"/></svg>