<svg xmlns="http://www.w3.org/2000/svg" width="92.6" height="57.207" viewBox="0 0 92.6 57.207"><path fill="#FFF" d="M73.938 8.068C65.662 2.79 56.105 0 46.298 0S26.937 2.79 18.66 8.068C10.76 13.108 4.32 20.198 0 28.604c4.318 8.404 10.76 15.498 18.66 20.535 8.275 5.277 17.832 8.067 27.64 8.067s19.362-2.79 27.64-8.068c7.897-5.04 14.34-12.132 18.66-20.536C88.28 20.2 81.837 13.107 73.937 8.068zM37.383 9.102c5.53 0 10.03 4.5 10.03 10.03 0 5.53-4.5 10.03-10.03 10.03-5.53 0-10.03-4.5-10.03-10.03 0-5.53 4.5-10.03 10.03-10.03zm32.96 34.4c-7.2 4.59-15.514 7.02-24.044 7.02-8.53 0-16.845-2.428-24.045-7.02-5.672-3.62-10.59-8.564-14.22-14.303l-.376-.597.376-.597c3.63-5.737 8.547-10.684 14.22-14.302.343-.22.712-.446 1.13-.695l2.69-1.608-1.073 2.945C24.1 16.83 23.64 19.44 23.64 22.1c0 6.054 2.356 11.743 6.637 16.023s9.97 6.637 16.022 6.637 11.742-2.356 16.022-6.637S68.96 28.15 68.96 22.1c0-2.66-.46-5.27-1.363-7.753l-1.074-2.95 2.692 1.612c.423.253.792.48 1.128.694 5.673 3.618 10.59 8.563 14.22 14.302l.378.597-.376.596c-3.63 5.738-8.548 10.682-14.22 14.3z"/></svg>