<svg xmlns="http://www.w3.org/2000/svg" viewBox="0 224.2 612 343.6"><path fill="#FFF" d="M226.7 464.8c-27.8 0-51.5 22.3-51.5 51.5 0 27.8 22.3 51.5 51.5 51.5 27.8 0 51.5-22.3 51.5-51.5 0-27.8-23.7-51.5-51.5-51.5zm0 76.5c-13.9 0-25-11.1-25-25s11.1-25 25-25 25 11.1 25 25c.1 13.9-11.1 25-25 25zm385.3-114v54.2c0 13.9-11.1 25-25 25h-26.4c-4.2-33.4-33.4-58.4-66.8-58.4s-62.6 25-66.8 58.4H293.5c-4.2-33.4-33.4-58.4-66.8-58.4s-62.6 25-66.8 58.4h-33.4c-13.9 0-25-11.1-25-25v-54.2H612zm-118.2 37.5c-27.8 0-51.5 22.3-51.5 51.5 0 27.8 22.3 51.5 51.5 51.5 27.8 0 51.5-22.3 51.5-51.5-.1-27.8-22.3-51.5-51.5-51.5zm0 76.5c-13.9 0-25-11.1-25-25s11.1-25 25-25 25 11.1 25 25c1.4 13.9-11.1 25-25 25zM602.3 373l-97.4-96c-5.6-5.6-13.9-9.7-23.6-9.7h-48.7v-18.1c0-13.9-11.1-25-25-25h-281c-13.9 0-25 11.1-25 25v2.8L2.8 264.6l176.6 23.6L0 304.9l179.4 25L0 346.6l102.9 19.5v48.7H612v-18.1c0-9.7-4.2-18.1-9.7-23.7zm-41.8 2.8h-93.2c-2.8 0-4.2-1.4-4.2-4.2v-72.3c0-2.8 1.4-4.2 4.2-4.2h18.1c1.4 0 1.4 0 2.8 1.4l75.1 72.3c1.4 2.9 0 7-2.8 7z"/></svg>