<svg xmlns="http://www.w3.org/2000/svg" viewBox="0 0 33 27.8"><path fill="#FFF" d="M19.9 4.8c1.5 1 2.6 2.6 2.8 4.5.6.3 1.3.5 2 .5 2.7 0 4.8-2.2 4.8-4.8s-2.1-5-4.7-5c-2.7 0-4.8 2.1-4.9 4.8zm-3.2 9.9c2.7 0 4.8-2.2 4.8-4.8S19.4 5 16.7 5s-4.8 2.2-4.8 4.8 2.2 4.9 4.8 4.9zm2.1.3h-4.1c-3.4 0-6.2 2.8-6.2 6.2v5.1l.3.1c3.3 1 6.1 1.4 8.4 1.4 4.6 0 7.2-1.3 7.4-1.4l.3-.2v-5c.1-3.4-2.7-6.2-6.1-6.2zm8-5h-4.1c0 1.6-.7 3.1-1.8 4.2 3 .9 5.3 3.7 5.3 7v1.5c4-.1 6.3-1.3 6.5-1.4l.3-.2v-5c0-3.3-2.8-6.1-6.2-6.1zM8.3 9.7c.9 0 1.8-.3 2.6-.7.2-1.5 1.1-2.9 2.3-3.8v-.3C13.2 2.2 11 .1 8.4.1c-2.8-.1-5 2.1-5 4.7 0 2.7 2.2 4.9 4.9 4.9zm4.3 4.5c-1.1-1-1.8-2.5-1.8-4.1H6.2C2.8 10 0 12.8 0 16.2v5.1l.3.1c2.6.8 5 1.2 7 1.3v-1.5c0-3.3 2.3-6.1 5.3-7z"/></svg>