<svg xmlns="http://www.w3.org/2000/svg" viewBox="0 0 33 33"><path fill="#FFF" d="M31.8 14.1l-3.3-.5c-.2-1-.6-1.9-1-2.8l2.1-2.6c.4-.5.4-1.3 0-1.9l-1.3-1.5c-.5-.5-1.3-.6-1.8-.3l-2.8 1.8c-1.2-.9-2.6-1.5-4.1-1.9l-.5-3.3C18.8.5 18.2 0 17.5 0h-2c-.7 0-1.3.5-1.4 1.2l-.5 3.3c-1.2.3-2.4.8-3.5 1.4L7.4 4c-.5-.4-1.3-.3-1.8.2L4.2 5.6c-.5.5-.6 1.3-.2 1.8l1.9 2.7c-.6 1.1-1.1 2.2-1.4 3.4l-3.3.6c-.7.1-1.2.7-1.2 1.4v2c0 .7.5 1.3 1.2 1.4l3.3.6c.3 1 .6 2 1.1 2.9L3.5 25c-.4.5-.4 1.3 0 1.9l1.3 1.5c.5.5 1.3.6 1.8.3l2.8-1.8c1.2.8 2.6 1.4 4 1.8l.5 3.3c.1.7.7 1.2 1.4 1.2h2c.7 0 1.3-.5 1.4-1.2l.5-3.3c1.2-.3 2.4-.8 3.4-1.4l2.8 2c.6.4 1.4.3 1.9-.2l1.4-1.4c.5-.5.6-1.3.2-1.9l-2-2.8c.6-1.1 1.1-2.2 1.4-3.5l3.3-.5c.7-.1 1.2-.7 1.2-1.4v-2c.2-.8-.3-1.4-1-1.5zm-15.2 8.6c-3.4 0-6.2-2.8-6.2-6.2 0-3.4 2.8-6.2 6.2-6.2 3.4 0 6.2 2.8 6.2 6.2-.1 3.4-2.8 6.2-6.2 6.2z"/></svg>