<svg xmlns="http://www.w3.org/2000/svg" viewBox="0 0 31 33.1"><path fill="#FFF" d="M30.1 27.9L19.4 17.2l-.3-.3 1.9-2 .3-.3c2.5.9 5.4.4 7.5-1.6 1.5-1.5 2.2-3.5 2-5.6 0-.2-.2-.4-.4-.5-.2-.1-.5 0-.6.1l-3.4 3.4-3.5-.9-1-3.6 3.4-3.4c.2-.2.2-.4.1-.6-.1-.2-.3-.4-.5-.4-2.1-.2-4.1.6-5.6 2-2 2-2.5 5-1.6 7.5l-.3.3-2.7 2.7-5.1-5.1c-.1 0-.2-.1-.2-.1.1-.1.1-.2.2-.3 1.1.2 3-1.9 4.7-3.6L9.4 0C7.2 2.2 5.6 3.6 5.8 4.7c-.5.3-.9.6-1.2.9l-.7.7c-.4.4-.7 1-.8 1.6-.1 0-.2.1-.2.2l-.3.3-.3.4c-.1.2-.2.4-.4.6 0 .1-.1.2-.1.2l-.1.2c-.1.2-.3.5-.4.7-.1.3-.3.6-.4 1v.1c0 .1-.1.2-.1.4l-.1.5c-.1.3-.1.6-.1.8v1.5l.1.4v.2c0 .2 0 .3.1.5L1 17c.1.3.3.4.6.4.1 0 .3-.1.4-.2.1-.1.1-.2.2-.3l.1-.9c0-.1 0-.2.1-.3 0-.1 0-.2.1-.2l.1-.3s0-.1.1-.1c0 0 0-.1.1-.1 0-.1.1-.1.1-.2.1-.1.1-.3.2-.4 0-.1.1-.1.1-.2.1-.2.2-.3.3-.4l.2-.3c0-.1.1-.1.1-.2l.1-.1c0-.2.1-.4.3-.5l.1-.1c.1-.1.2-.2.4-.3.1 0 .1-.1.2-.1s.1-.1.2-.1c.1-.1.2-.1.3-.2l.3-.1.3-.1c.1 0 .2-.1.3-.1 0 0 .1 0 .1-.1h.1c.1 0 .1 0 .2-.1h.1l.3.3 5 5L1.1 27c-1.3 1.3-1.6 3.3-.2 4.6s3.2 1 4.5-.3l9.5-10 .2.2 10.7 10.7c1.2 1.2 3.1 1.2 4.3 0s1.2-3.1 0-4.3zM4 30.2c-.5.5-1.3.5-1.8 0s-.5-1.3 0-1.8c.5-.4 1.3-.4 1.8.1s.5 1.3 0 1.7z"/></svg>