<?xml version="1.0" encoding="utf-8"?>
<!-- Generator: Adobe Illustrator 18.0.0, SVG Export Plug-In . SVG Version: 6.00 Build 0)  -->
<!DOCTYPE svg PUBLIC "-//W3C//DTD SVG 1.1//EN" "http://www.w3.org/Graphics/SVG/1.1/DTD/svg11.dtd">
<svg version="1.1" id="Capa_1" xmlns="http://www.w3.org/2000/svg" xmlns:xlink="http://www.w3.org/1999/xlink" x="0px" y="0px"
	 viewBox="0 0 612 566.5" enable-background="new 0 0 612 566.5" xml:space="preserve">
<path fill="#FD8204" d="M283.4,566.5c-156,0-283.2-127.3-283.2-283.2S127.4,0,283.4,0c134.9,0,251.2,95.3,277.3,227.6h33.7
	c6.7,0,13.5,4.2,16,10.1c2.5,5.9,1.7,13.5-2.5,18.5l-63.2,75.9c-6.7,8.4-20.2,8.4-27,0l-63.2-75.9c-4.2-5.1-5.1-12.6-2.5-18.5
	c2.5-5.9,9.3-10.1,16-10.1h30.3C473,130.7,383.7,60.7,283.4,60.7c-123.1,0-222.5,99.5-222.5,222.5s99.5,222.5,222.5,222.5
	c79.2,0,153.4-43,193-111.3c5.1-9.3,15.2-15.2,26.1-15.2c5.1,0,11,1.7,15.2,4.2c6.7,4.2,11.8,11,14.3,18.5c1.7,7.6,0.8,16-3.4,22.8
	C478.1,511.7,383.7,566.5,283.4,566.5z M283.4,10.1c-150.9,0-273.1,122.2-273.1,273.1s122.2,273.1,273.1,273.1
	c96.9,0,188-52.3,236.9-136.6c2.5-5.1,3.4-10.1,1.7-15.2c-1.7-5.1-5.1-9.3-9.3-12.6c-9.3-5.1-21.9-1.7-27.8,7.6
	C443.5,471.2,366,515.9,283.4,515.9c-128.1,0-232.7-104.5-232.7-232.7S155.2,50.6,283.4,50.6c107.1,0,203.2,75.9,226.8,181.2
	l1.7,5.9H468c-3.4,0-5.9,1.7-6.7,4.2c-0.8,2.5-0.8,5.9,0.8,8.4l63.2,75.9c2.5,3.4,8.4,3.4,11.8,0l63.2-75.9c1.7-2.5,2.5-5.1,0.8-8.4
	c-0.8-2.5-4.2-4.2-6.7-4.2h-41.3l-0.8-4.2C527.8,103.7,414.9,10.1,283.4,10.1z"/>
</svg>
